# xmcd
#
# Track frame offsets:
#	150
#	21148
#	36575
#	53673
#	69450
#	89410
#	101213
#	118500
#	140020
#	162610
#
# Disc length: 2387 seconds
#
# Revision: 0
# Processed by: cddbd v1.5.2PL0 Copyright (c) Steve Scherf et al.
# Submitted via: EasyCDDAExtractor 12.0.1.1
#
DISCID=9009510a
DTITLE=Rocio Jurado - Por Que Me Habras Besado
DYEAR=1983
DGENRE=Latin
TTITLE0=Por Que Me Habras Besado
TTITLE1=Mira
TTITLE2=Tu Me Has Resucitado
TTITLE3=No Te Enfades Conmigo
TTITLE4=Esperame
TTITLE5=Ni Una Mas
TTITLE6=Voy A Recobrar Su Amor
TTITLE7=Amar Tan Bien
TTITLE8=Esta Tan Claro
TTITLE9=Sabes Lo Que Es
EXTD=
EXTT0=
EXTT1=
EXTT2=
EXTT3=
EXTT4=
EXTT5=
EXTT6=
EXTT7=
EXTT8=
EXTT9=
PLAYORDER=
